# xmcd CD database file
#
# Track frame offsets:
#	182
#	14320
#	28795
#	42370
#	56170
#	70120
#	78295
#	88420
#	100945
#	114445
#	126445
#	137545
#	150145
#	161770
#
# Disc length: 2289 seconds
#
# Revision: 0
# Processed by: cddbd v1.5.2PL0 Copyright (c) Steve Scherf et al.
# Submitted via: ACXtractor (MTCDDB.DLL V2003.12.21)
#
DISCID=b308ef0e
DTITLE=Lindsay Butler - The Best Of
DYEAR=1997
DGENRE=Country
TTITLE0=Call of Spring
TTITLE1=Forty
TTITLE2=Last Night I Heard you Crying in Your Sleep
TTITLE3=Teardrops
TTITLE4=Letter Edged in Black
TTITLE5=Happy Whistler
TTITLE6=Rewing
TTITLE7=Play me a Sad Hank williams Song
TTITLE8=May you Never be Alone Like Me
TTITLE9=I'm so Lonesome I Could Cry
TTITLE10=Settin' the Woods on Fire
TTITLE11=My Son Calls Another Man Daddy
TTITLE12=A Mansion on the Hill
TTITLE13=Len's Theme
EXTD=ID3G:   2 YEAR: 1997
EXTT0=
EXTT1=
EXTT2=
EXTT3=
EXTT4=
EXTT5=
EXTT6=
EXTT7=
EXTT8=
EXTT9=
EXTT10=
EXTT11=
EXTT12=
EXTT13=
PLAYORDER=
